<svg xmlns="http://www.w3.org/2000/svg" xmlns:xlink="http://www.w3.org/1999/xlink" viewBox="0,0,256,256" width="50px" height="50px" fill-rule="nonzero"><g fill="#eaf205" fill-rule="nonzero" stroke="none" stroke-width="1" stroke-linecap="butt" stroke-linejoin="miter" stroke-miterlimit="10" stroke-dasharray="" stroke-dashoffset="0" font-family="none" font-weight="none" font-size="none" text-anchor="none" style="mix-blend-mode: normal"><g transform="scale(5.12,5.12)"><path d="M14.40234,4c-5.73347,0 -10.40234,4.66887 -10.40234,10.40234v21.19336c0,5.73437 4.66887,10.4043 10.40234,10.4043h21.19336c5.73437,0 10.4043,-4.66887 10.4043,-10.40234v-21.19531c0,-5.73347 -4.66887,-10.40234 -10.40234,-10.40234zM14.40234,6h21.19531c4.65253,0 8.40234,3.74981 8.40234,8.40234v21.19531c0,4.65253 -3.75066,8.40234 -8.4043,8.40234h-21.19336c-4.65253,0 -8.40234,-3.75066 -8.40234,-8.4043v-21.19336c0,-4.65253 3.74981,-8.40234 8.40234,-8.40234zM16.52734,11c-3.04132,0 -5.52734,2.48603 -5.52734,5.52734v16.94531c0,3.04132 2.48603,5.52734 5.52734,5.52734h16.94531c3.04132,0 5.52734,-2.48603 5.52734,-5.52734v-16.94531c0,-3.04132 -2.4872,-5.52734 -5.5293,-5.52734zM16.52734,13h16.94336c1.9619,0 3.5293,1.56666 3.5293,3.52734v16.94531c0,1.96068 -1.56666,3.52734 -3.52734,3.52734h-16.94531c-1.96068,0 -3.52734,-1.56666 -3.52734,-3.52734v-16.94531c0,-1.96068 1.56666,-3.52734 3.52734,-3.52734zM19,19v1v11h12v-12zM21,21h8v8h-8z"></path></g></g></svg>