<svg xmlns="http://www.w3.org/2000/svg" xmlns:xlink="http://www.w3.org/1999/xlink" viewBox="0,0,256,256" width="32px" height="32px" fill-rule="nonzero"><g fill="#0798f2" fill-rule="nonzero" stroke="none" stroke-width="1" stroke-linecap="butt" stroke-linejoin="miter" stroke-miterlimit="10" stroke-dasharray="" stroke-dashoffset="0" font-family="none" font-weight="none" font-size="none" text-anchor="none" style="mix-blend-mode: normal"><g transform="scale(8,8)"><path d="M16.02148,2.19922l-12.44141,12.40234c-0.769,0.767 -0.771,2.02174 0,2.80274l12.44141,12.39648l0.70703,-0.70312c3.639,-3.625 5.86564,-5.84516 7.18164,-7.16016l1.35547,-1.35742c0.077,-0.076 0.16305,-0.16377 0.24805,-0.25977c0.036,-0.035 0.06413,-0.06022 0.07813,-0.07422l-0.00586,-0.00781c0.021,-0.026 0.0415,-0.05112 0.0625,-0.07812c0.931,-0.93 2.20167,-2.19781 2.76367,-2.75781c0.379,-0.374 0.58789,-0.87134 0.58789,-1.40234c0,-0.53 -0.20794,-1.02639 -0.58594,-1.40039c-1.663,-1.66 -3.57981,-3.58262 -5.50781,-5.51562c-2.16,-2.166 -4.33373,-4.34564 -6.17773,-6.18164zM16.02148,5.02344c1.68,1.676 3.57975,3.57966 5.46875,5.47266c1.923,1.928 3.83509,3.84495 5.49609,5.50195c-1.354,1.35 -2.30794,2.30223 -2.96094,2.99023c-0.124,0.113 -0.25086,0.23723 -0.38086,0.36523c-0.224,0.22 -0.44319,0.43252 -0.49219,0.47852l0.01758,0.01953c-1.239,1.238 -3.60648,3.598 -7.14648,7.125l-11.03125,-10.96094zM16.02148,10.92578l-5.09375,5.07422l5.09375,5.07422l5.0957,-5.07422zM16.02148,13.74805l2.26172,2.25195l-2.26172,2.25195l-2.25977,-2.25195z"></path></g></g></svg>