<svg xmlns="http://www.w3.org/2000/svg" xmlns:xlink="http://www.w3.org/1999/xlink" viewBox="0,0,256,256" width="64px" height="64px" fill-rule="nonzero"><defs><linearGradient x1="32" y1="4.447" x2="32" y2="59.37" gradientUnits="userSpaceOnUse" id="color-1"><stop offset="0" stop-color="#1a6dff"></stop><stop offset="1" stop-color="#27cdf2"></stop></linearGradient><linearGradient x1="42.994" y1="11.085" x2="42.994" y2="42.374" gradientUnits="userSpaceOnUse" id="color-2"><stop offset="0" stop-color="#c0355f"></stop><stop offset="1" stop-color="#27cdf2"></stop></linearGradient><linearGradient x1="20.994" y1="14.149" x2="20.994" y2="50.112" gradientUnits="userSpaceOnUse" id="color-3"><stop offset="0" stop-color="#c0355f"></stop><stop offset="1" stop-color="#27cdf2"></stop></linearGradient></defs><g fill="none" fill-rule="nonzero" stroke="none" stroke-width="1" stroke-linecap="butt" stroke-linejoin="miter" stroke-miterlimit="10" stroke-dasharray="" stroke-dashoffset="0" font-family="none" font-weight="none" font-size="none" text-anchor="none" style="mix-blend-mode: normal"><g transform="scale(4,4)"><path d="M59.707,31.283l-26.974,-26.973c-0.391,-0.391 -1.023,-0.391 -1.414,0c-0.129,0.129 -0.241,0.269 -0.364,0.402l-17.491,17.4l-9.171,9.171c-0.391,0.391 -0.391,1.023 0,1.414l8.116,8.116l12.311,12.311l6.566,6.566c0.195,0.195 0.451,0.293 0.707,0.293c0.256,0 0.512,-0.098 0.707,-0.293l27.007,-26.993c0.188,-0.187 0.293,-0.441 0.293,-0.707c0,-0.264 -0.105,-0.519 -0.293,-0.707zM13.823,39.399l-7.409,-7.409l21.235,-21.16c-0.268,1.087 -0.421,2.21 -0.421,3.359c0,3.383 1.205,6.574 3.394,9.109l-7.986,7.986c-0.391,0.391 -0.391,1.023 0,1.414l4.124,4.124c0.001,0.001 0.001,0.002 0.002,0.003l4.524,4.523c4.429,4.429 4.655,11.494 0.678,16.192l-5.83,-5.83zM32,39.233l-1.293,-1.293c0,0 0,-0.001 -0.001,-0.001l-5.949,-5.949l7.243,-7.243l7.243,7.243zM36.363,53.202c0.273,-1.097 0.429,-2.231 0.429,-3.391c0,-3.392 -1.212,-6.592 -3.413,-9.129l7.985,-7.985c0.391,-0.391 0.391,-1.023 0,-1.414l-8.631,-8.631c-2.261,-2.261 -3.506,-5.267 -3.506,-8.464c0,-2.862 0.997,-5.57 2.828,-7.729l25.53,25.53z" fill="url(#color-1)"></path><path d="M44.899,31.99l-8.86,8.861c1.46,2.144 2.366,4.601 2.649,7.198l16.068,-16.06l-22.403,-22.404c-1.952,3.757 -1.354,8.505 1.795,11.653z" fill="url(#color-2)"></path><path d="M19.089,31.644l8.86,-8.861c-1.46,-2.144 -2.366,-4.601 -2.649,-7.198l-16.068,16.06l22.404,22.404c1.952,-3.757 1.354,-8.505 -1.795,-11.653z" fill="url(#color-3)"></path></g></g></svg>