<svg xmlns="http://www.w3.org/2000/svg" xmlns:xlink="http://www.w3.org/1999/xlink" viewBox="0,0,256,256" width="48px" height="48px" fill-rule="nonzero"><g fill="#eaf205" fill-rule="nonzero" stroke="none" stroke-width="1" stroke-linecap="butt" stroke-linejoin="miter" stroke-miterlimit="10" stroke-dasharray="" stroke-dashoffset="0" font-family="none" font-weight="none" font-size="none" text-anchor="none" style="mix-blend-mode: normal"><g transform="scale(5.33333,5.33333)"><path d="M30,43h-21c-2.209,0 -4,-1.791 -4,-4v-21c0,-2.209 1.791,-4 4,-4h21c2.209,0 4,1.791 4,4v21c0,2.209 -1.791,4 -4,4zM28,34v-11c0,-1.657 -1.343,-3 -3,-3h-11c-1.657,0 -3,1.343 -3,3v11c0,1.657 1.343,3 3,3h11c1.657,0 3,-1.343 3,-3z"></path><path d="M34,27v8h-6.18c0.12,-0.31 0.18,-0.65 0.18,-1v-7z" opacity="0.07"></path><path d="M34,27.5v7h-6.05c0.04,-0.16 0.05,-0.33 0.05,-0.5v-6.5z" opacity="0.07"></path><path d="M39,5h-21c-2.21,0 -4,1.79 -4,4v5h6c0,-1.66 1.34,-3 3,-3h11c1.66,0 3,1.34 3,3v11c0,1.66 -1.34,3 -3,3h-11c-1.66,0 -3,-1.34 -3,-3v-5h-6v10c0,2.21 1.79,4 4,4h21c2.21,0 4,-1.79 4,-4v-21c0,-2.21 -1.79,-4 -4,-4z"></path><path d="M20.18,13c-0.12,0.31 -0.18,0.65 -0.18,1h-6.02v-1z" opacity="0.05"></path><path d="M20.05,13.5c-0.04,0.16 -0.05,0.33 -0.05,0.5h-6.02v-0.5z" opacity="0.07"></path><rect x="-19.999" y="-21" transform="rotate(-180)" width="6.019" height="1" opacity="0.05"></rect><rect x="-19.999" y="-20.5" transform="rotate(-180)" width="6.019" height="0.5" opacity="0.07"></rect></g></g></svg>